<svg xmlns="http://www.w3.org/2000/svg" viewBox="0 0 1452.57 208"><defs><style>.a{fill:#f4f4f4;}.b{fill:#4d4d4d;}</style></defs><title>separador</title><path class="a" d="M.29,67.44c84.18,3,208.24,12.62,352.12,45.13,141.7,32,230.39,70.11,275.1,85.89,139.15,49.12,379.66,68.18,822.28-77.88l1.71,129.92H1.5Z" transform="translate(1.07 -42.5)"/><path class="b" d="M-1.07,42.5c31.21.45,62.52,1.28,94,3.24S156,50.92,187.3,56s62,11.95,92.32,19.11q22.72,5.38,45.27,10.92c15.08,3.69,30,7.24,45.23,11.1q45.5,11.4,90.34,25.22t88.75,30.14c14.63,5.42,29.18,11,43.64,16.69s28.82,11.51,43,16.62c3.57,1.24,7.1,2.57,10.69,3.76l10.78,3.52c3.6,1.14,7.24,2.17,10.87,3.27,1.81.53,3.62,1.1,5.45,1.59l5.49,1.48,5.49,1.47c1.82.5,3.66,1,5.5,1.42L701.18,205c3.69.9,7.42,1.61,11.13,2.43s7.43,1.62,11.18,2.27a756.28,756.28,0,0,0,90.75,11.66c30.54,2.11,61.24,2.64,92,1.93,61.46-1.34,122.88-7.92,183.89-17.21,15.22-2.54,30.48-4.87,45.65-7.75l11.4-2.07c3.8-.68,7.6-1.37,11.38-2.15l22.73-4.51,5.68-1.13,5.67-1.22,11.33-2.44,11.33-2.44,5.67-1.21,5.65-1.31c15-3.5,30.15-6.86,45.14-10.67,60.07-14.76,119.67-31.61,178.79-50-58.51,20.3-117.59,39-177.3,55.74-14.9,4.28-29.92,8.13-44.9,12.12l-5.62,1.49-5.65,1.4-11.29,2.81-11.29,2.8-5.64,1.4-5.67,1.32-22.67,5.25c-3.78.9-7.57,1.72-11.37,2.52l-11.38,2.44c-15.15,3.38-30.42,6.21-45.66,9.24C1031,229,969.22,237.58,906.88,240.92c-31.15,1.71-62.44,2.16-93.74,1a780.39,780.39,0,0,1-93.74-9c-3.9-.56-7.77-1.3-11.65-2s-7.77-1.35-11.63-2.16l-11.6-2.4c-1.93-.39-3.86-.83-5.78-1.29L673,223.67l-5.77-1.36c-1.92-.46-3.83-1-5.74-1.48-3.82-1-7.67-2-11.47-3.06l-11.41-3.33c-3.8-1.13-7.56-2.4-11.34-3.59-15.12-4.93-29.62-10.33-44.17-15.48S554,185.13,539.44,180.25q-43.7-14.61-88-26.83t-89.32-21.91c-14.89-3.28-30.21-6.42-45.32-9.62s-30.26-6.36-45.35-9.43c-30.18-6.14-60.15-11.76-90.11-15.72s-60.08-6-90.49-7S29.78,89-.93,89.5Z" transform="translate(1.07 -42.5)"/></svg>