<?xml version="1.0" encoding="UTF-8" standalone="no"?><!-- Generator: Gravit.io --><svg xmlns="http://www.w3.org/2000/svg" xmlns:xlink="http://www.w3.org/1999/xlink" style="isolation:isolate" viewBox="0 0 152 152" width="152pt" height="152pt"><defs><clipPath id="_clipPath_2KWGW7UC5vEteAWcY2StJ5llue9yI1qc"><rect width="152" height="152"/></clipPath></defs><g clip-path="url(#_clipPath_2KWGW7UC5vEteAWcY2StJ5llue9yI1qc)"><g><path d=" M 76 28.704 L 76 3.702 C 66.35 3.762 56.8 5.722 47.9 9.482 C 39.33 13.112 31.52 18.342 24.89 24.892 L 24.89 24.892 L 42.534 42.532 C 46.882 38.28 51.996 34.882 57.6 32.512 C 63.43 30.059 69.677 28.762 76 28.704 Z " fill="rgb(200,211,103)"/><path d=" M 28.705 76.002 L 3.703 76.002 C 3.763 66.352 5.723 56.802 9.483 47.902 C 13.113 39.332 18.343 31.522 24.893 24.892 L 24.893 24.892 L 42.534 42.536 C 38.282 46.884 34.883 51.998 32.513 57.602 C 30.061 63.432 28.764 69.679 28.705 76.002 Z " fill="rgb(161,200,79)"/><path d=" M 123.295 76.002 L 148.297 76.002 C 148.237 66.352 146.277 56.802 142.517 47.902 C 138.887 39.332 133.657 31.522 127.107 24.892 L 127.107 24.892 L 109.466 42.536 C 113.718 46.884 117.117 51.998 119.487 57.602 C 121.939 63.432 123.236 69.679 123.295 76.002 Z " fill="rgb(251,177,66)"/><path d=" M 123.295 76.002 L 148.297 76.002 C 148.237 85.652 146.277 95.202 142.517 104.102 C 138.887 112.672 133.657 120.482 127.107 127.112 L 127.107 127.112 L 109.466 109.468 C 113.718 105.12 117.117 100.006 119.487 94.402 C 121.939 88.572 123.236 82.324 123.295 76.002 Z " fill="rgb(250,116,91)"/><path d=" M 76 123.296 L 76 148.298 C 85.65 148.238 95.2 146.278 104.1 142.518 C 112.67 138.888 120.48 133.658 127.11 127.108 L 127.11 127.108 L 109.466 109.468 C 105.118 113.72 100.004 117.118 94.4 119.488 C 88.57 121.941 82.323 123.238 76 123.296 Z " fill="rgb(239,58,114)"/><path d=" M 28.705 76.002 L 3.703 76.002 C 3.763 85.652 5.723 95.202 9.483 104.102 C 13.113 112.672 18.343 120.482 24.893 127.112 L 24.893 127.112 L 42.534 109.468 C 38.282 105.12 34.883 100.006 32.513 94.402 C 30.061 88.572 28.764 82.324 28.705 76.002 Z " fill="rgb(43,192,238)"/><path d=" M 76 123.296 L 76 148.298 C 66.35 148.238 56.8 146.278 47.9 142.518 C 39.33 138.888 31.52 133.658 24.89 127.108 L 24.89 127.108 L 42.534 109.468 C 46.882 113.72 51.996 117.118 57.6 119.488 C 63.43 121.941 69.677 123.238 76 123.296 Z " fill="rgb(58,139,192)"/><path d=" M 76 28.704 L 76 3.702 C 85.65 3.762 95.2 5.722 104.1 9.482 C 112.67 13.112 120.48 18.342 127.11 24.892 L 127.11 24.892 L 109.466 42.532 C 105.118 38.28 100.004 34.882 94.4 32.512 C 88.57 30.059 82.323 28.762 76 28.704 Z " fill="rgb(253,206,71)"/><path d=" M 76 28.704 L 76 3.702 C 66.35 3.762 56.8 5.722 47.9 9.482 C 39.33 13.112 31.52 18.342 24.89 24.892 L 24.89 24.892 L 42.534 42.532 C 46.882 38.28 51.996 34.882 57.6 32.512 C 63.43 30.059 69.677 28.762 76 28.704 Z " fill="rgb(200,211,103)"/><path d=" M 28.705 76.002 L 3.703 76.002 C 3.763 66.352 5.723 56.802 9.483 47.902 C 13.113 39.332 18.343 31.522 24.893 24.892 L 24.893 24.892 L 42.534 42.536 C 38.282 46.884 34.883 51.998 32.513 57.602 C 30.061 63.432 28.764 69.679 28.705 76.002 Z " fill="rgb(161,200,79)"/><path d=" M 123.295 76.002 L 148.297 76.002 C 148.237 66.352 146.277 56.802 142.517 47.902 C 138.887 39.332 133.657 31.522 127.107 24.892 L 127.107 24.892 L 109.466 42.536 C 113.718 46.884 117.117 51.998 119.487 57.602 C 121.939 63.432 123.236 69.679 123.295 76.002 Z " fill="rgb(251,177,66)"/><path d=" M 123.295 76.002 L 148.297 76.002 C 148.237 85.652 146.277 95.202 142.517 104.102 C 138.887 112.672 133.657 120.482 127.107 127.112 L 127.107 127.112 L 109.466 109.468 C 113.718 105.12 117.117 100.006 119.487 94.402 C 121.939 88.572 123.236 82.324 123.295 76.002 Z " fill="rgb(250,116,91)"/><path d=" M 76 123.296 L 76 148.298 C 85.65 148.238 95.2 146.278 104.1 142.518 C 112.67 138.888 120.48 133.658 127.11 127.108 L 127.11 127.108 L 109.466 109.468 C 105.118 113.72 100.004 117.118 94.4 119.488 C 88.57 121.941 82.323 123.238 76 123.296 Z " fill="rgb(239,58,114)"/><path d=" M 28.705 76.002 L 3.703 76.002 C 3.763 85.652 5.723 95.202 9.483 104.102 C 13.113 112.672 18.343 120.482 24.893 127.112 L 24.893 127.112 L 42.534 109.468 C 38.282 105.12 34.883 100.006 32.513 94.402 C 30.061 88.572 28.764 82.324 28.705 76.002 Z " fill="rgb(43,192,238)"/><path d=" M 76 123.296 L 76 148.298 C 66.35 148.238 56.8 146.278 47.9 142.518 C 39.33 138.888 31.52 133.658 24.89 127.108 L 24.89 127.108 L 42.534 109.468 C 46.882 113.72 51.996 117.118 57.6 119.488 C 63.43 121.941 69.677 123.238 76 123.296 Z " fill="rgb(58,139,192)"/><path d=" M 76 28.704 L 76 3.702 C 85.65 3.762 95.2 5.722 104.1 9.482 C 112.67 13.112 120.48 18.342 127.11 24.892 L 127.11 24.892 L 109.466 42.532 C 105.118 38.28 100.004 34.882 94.4 32.512 C 88.57 30.059 82.323 28.762 76 28.704 Z " fill="rgb(253,206,71)"/></g><path d=" M 76 28.684 C 69.676 28.723 63.418 30.007 57.586 32.471 C 51.97 34.85 46.852 38.277 42.508 42.569 L 42.508 42.569 L 42.509 42.571 L 42.509 42.571 L 42.509 42.571 L 42.509 42.571 C 38.217 46.915 34.79 52.032 32.412 57.648 C 29.948 63.48 28.663 69.738 28.624 76.062 C 28.663 82.385 29.948 88.643 32.412 94.476 C 34.79 100.09 38.217 105.208 42.508 109.552 L 42.508 109.552 L 42.508 109.552 L 42.508 109.552 C 42.508 109.552 42.508 109.552 42.509 109.553 C 42.509 109.553 42.51 109.554 42.51 109.554 C 46.854 113.845 51.971 117.272 57.586 119.65 C 63.418 122.114 69.676 123.398 76 123.438 C 82.324 123.398 88.582 122.114 94.414 119.65 C 100.029 117.272 105.146 113.845 109.49 109.554 C 109.49 109.554 109.491 109.553 109.491 109.553 C 109.492 109.552 109.492 109.552 109.492 109.552 L 109.492 109.552 L 109.492 109.552 L 109.492 109.552 L 109.492 109.552 C 113.783 105.208 117.21 100.09 119.588 94.476 C 122.052 88.643 123.337 82.385 123.376 76.062 C 123.337 69.738 122.052 63.48 119.588 57.648 C 117.21 52.032 113.783 46.915 109.491 42.571 L 109.492 42.569 L 109.492 42.569 C 105.148 38.277 100.03 34.85 94.414 32.471 C 88.582 30.007 82.324 28.723 76 28.684 Z  M 76.125 51.139 C 72.734 51.17 69.383 51.86 66.256 53.164 C 63.25 54.424 60.507 56.23 58.175 58.491 L 58.175 58.493 C 55.894 60.805 54.072 63.524 52.8 66.504 C 51.485 69.603 50.789 72.925 50.758 76.286 L 50.758 76.286 L 50.758 76.286 C 50.789 79.648 51.485 82.97 52.8 86.069 C 54.072 89.049 55.894 91.768 58.175 94.08 L 58.174 94.081 L 58.175 94.08 C 60.507 96.341 63.25 98.147 66.256 99.407 C 69.383 100.711 72.734 101.401 76.125 101.432 L 76.125 101.432 C 79.516 101.401 82.867 100.711 85.994 99.407 C 89 98.147 91.743 96.341 94.075 94.08 C 96.356 91.768 98.178 89.049 99.45 86.069 C 100.765 82.97 101.461 79.648 101.492 76.286 L 101.492 76.286 L 101.492 76.286 C 101.461 72.925 100.765 69.603 99.45 66.504 C 98.178 63.524 96.356 60.805 94.075 58.493 L 94.075 58.491 C 91.743 56.23 89 54.424 85.994 53.164 C 82.867 51.86 79.516 51.17 76.125 51.139 Z  M 94.075 94.08 L 94.075 94.08 L 94.075 94.08 L 94.075 94.08 L 94.075 94.08 Z " fill-rule="evenodd" fill="rgb(254,234,180)"/></g></svg>